<svg width="94" height="92" viewBox="0 0 94 92" fill="none" xmlns="http://www.w3.org/2000/svg">
<path d="M47.8336 91.2943H45.8497C20.6485 91.2943 0.218887 70.8647 0.218887 45.6635C0.218887 20.4623 20.6484 0.0327148 45.8496 0.0327148H47.8336C73.0348 0.0327148 93.4644 20.4623 93.4644 45.6635C93.4644 70.8647 73.0348 91.2943 47.8336 91.2943Z" fill="#BDD4FF"/>
<path d="M65.8357 34.0622C65.8357 37.5715 62.9908 40.4163 59.4815 40.4163C55.9723 40.4163 53.1274 37.5715 53.1274 34.0622C53.1274 30.5529 55.9723 27.708 59.4815 27.708C62.9908 27.708 65.8357 30.5529 65.8357 34.0622Z" fill="#2263DE" fill-opacity="0.4"/>
<path d="M27.7108 34.0622C27.7108 37.5715 30.5556 40.4163 34.0649 40.4163C37.5742 40.4163 40.4191 37.5715 40.4191 34.0622C40.4191 30.5529 37.5742 27.708 34.0649 27.708C30.5556 27.708 27.7108 30.5529 27.7108 34.0622Z" fill="#2263DE" fill-opacity="0.4"/>
<path d="M72.1899 56.9372C72.1899 60.4465 67.638 63.2913 62.0232 63.2913C56.4084 63.2913 51.8566 60.4465 51.8566 56.9372C51.8566 53.4279 56.4084 50.583 62.0232 50.583C67.638 50.583 72.1899 53.4279 72.1899 56.9372Z" fill="#2263DE" fill-opacity="0.4"/>
<path d="M21.3566 56.9372C21.3566 60.4465 25.9083 63.2913 31.5232 63.2913C37.1381 63.2913 41.6899 60.4465 41.6899 56.9372C41.6899 53.4279 37.1381 50.583 31.5232 50.583C25.9083 50.583 21.3566 53.4279 21.3566 56.9372Z" fill="#2263DE" fill-opacity="0.4"/>
<path d="M55.669 34.0623C55.669 38.9754 51.6863 42.9582 46.7732 42.9582C41.8602 42.9582 37.8774 38.9754 37.8774 34.0623C37.8774 29.1493 41.8602 25.1665 46.7732 25.1665C51.6863 25.1665 55.669 29.1493 55.669 34.0623Z" fill="#123678"/>
<path d="M62.0233 56.9373C62.0233 61.8504 55.1956 65.8332 46.7733 65.8332C38.3509 65.8332 31.5233 61.8504 31.5233 56.9373C31.5233 52.0243 38.3509 48.0415 46.7733 48.0415C55.1956 48.0415 62.0233 52.0243 62.0233 56.9373Z" fill="#123678"/>
</svg>
