<svg width="48" height="48" viewBox="0 0 48 48" fill="none" xmlns="http://www.w3.org/2000/svg">
<rect width="48" height="48" rx="24" fill="black"/>
<path d="M28.6 17.82C27.9166 17.0395 27.5399 16.0374 27.54 15H24.45V27.4C24.4267 28.0712 24.1436 28.7071 23.6603 29.1735C23.1771 29.6399 22.5316 29.9004 21.86 29.9C20.44 29.9 19.26 28.74 19.26 27.3C19.26 25.58 20.92 24.29 22.63 24.82V21.66C19.18 21.2 16.16 23.88 16.16 27.3C16.16 30.63 18.92 33 21.85 33C24.99 33 27.54 30.45 27.54 27.3V21.01C28.793 21.9099 30.2974 22.3926 31.84 22.39V19.3C31.84 19.3 29.96 19.39 28.6 17.82Z" fill="white"/>
</svg>
