<svg width="304" height="74" viewBox="0 0 304 74" fill="none" xmlns="http://www.w3.org/2000/svg">
<path d="M76.1094 39.6701C76.1094 37.1066 76.687 34.8069 77.8422 32.7711C78.9974 30.7102 80.5669 29.1017 82.5508 27.9456C84.5599 26.7895 86.7823 26.2115 89.2183 26.2115C92.0811 26.2115 94.5798 26.9026 96.7144 28.2849C98.849 29.6672 100.406 31.6276 101.385 34.166H97.2795C96.5512 32.5827 95.4965 31.3637 94.1153 30.5092C92.7592 29.6547 91.1268 29.2274 89.2183 29.2274C87.385 29.2274 85.7402 29.6547 84.2836 30.5092C82.8271 31.3637 81.6845 32.5827 80.8558 34.166C80.027 35.7243 79.6127 37.559 79.6127 39.6701C79.6127 41.7562 80.027 43.5909 80.8558 45.1743C81.6845 46.7325 82.8271 47.9389 84.2836 48.7934C85.7402 49.6479 87.385 50.0752 89.2183 50.0752C91.1268 50.0752 92.7592 49.6605 94.1153 48.8311C95.4965 47.9766 96.5512 46.7576 97.2795 45.1743H101.385C100.406 47.6876 98.849 49.6354 96.7144 51.0177C94.5798 52.3749 92.0811 53.0534 89.2183 53.0534C86.7823 53.0534 84.5599 52.4879 82.5508 51.357C80.5669 50.2009 78.9974 48.6049 77.8422 46.5691C76.687 44.5334 76.1094 42.2337 76.1094 39.6701Z" fill="#36074E"/>
<path d="M109.916 24.9297V52.8272H106.488V24.9297H109.916Z" fill="#36074E"/>
<path d="M117.529 28.8127C116.876 28.8127 116.323 28.5865 115.871 28.1341C115.419 27.6817 115.193 27.1288 115.193 26.4753C115.193 25.8219 115.419 25.269 115.871 24.8166C116.323 24.3642 116.876 24.138 117.529 24.138C118.156 24.138 118.684 24.3642 119.111 24.8166C119.563 25.269 119.789 25.8219 119.789 26.4753C119.789 27.1288 119.563 27.6817 119.111 28.1341C118.684 28.5865 118.156 28.8127 117.529 28.8127ZM119.186 32.168V52.8272H115.758V32.168H119.186Z" fill="#36074E"/>
<path d="M128.456 35.9756C129.134 34.7944 130.139 33.8142 131.47 33.035C132.826 32.2308 134.395 31.8287 136.178 31.8287C138.012 31.8287 139.669 32.2685 141.151 33.1481C142.657 34.0278 143.838 35.2719 144.692 36.8804C145.545 38.4638 145.972 40.311 145.972 42.4222C145.972 44.5082 145.545 46.3681 144.692 48.0017C143.838 49.6354 142.657 50.9046 141.151 51.8094C139.669 52.7141 138.012 53.1665 136.178 53.1665C134.42 53.1665 132.863 52.777 131.507 51.9979C130.176 51.1936 129.159 50.2009 128.456 49.0196V62.6291H125.028V32.168H128.456V35.9756ZM142.469 42.4222C142.469 40.864 142.155 39.5068 141.527 38.3507C140.9 37.1945 140.046 36.3149 138.966 35.7117C137.911 35.1085 136.743 34.8069 135.463 34.8069C134.207 34.8069 133.039 35.1211 131.959 35.7494C130.905 36.3526 130.051 37.2448 129.398 38.4261C128.77 39.5822 128.456 40.9268 128.456 42.4599C128.456 44.0181 128.77 45.3879 129.398 46.5691C130.051 47.7253 130.905 48.6175 131.959 49.2458C133.039 49.849 134.207 50.1506 135.463 50.1506C136.743 50.1506 137.911 49.849 138.966 49.2458C140.046 48.6175 140.9 47.7253 141.527 46.5691C142.155 45.3879 142.469 44.0056 142.469 42.4222Z" fill="#36074E"/>
<path d="M157.792 53.1665C156.21 53.1665 154.791 52.9026 153.536 52.3749C152.28 51.8219 151.288 51.0679 150.56 50.1129C149.831 49.1327 149.43 48.0143 149.354 46.7576H152.895C152.996 47.7881 153.473 48.63 154.327 49.2835C155.206 49.937 156.348 50.2637 157.755 50.2637C159.06 50.2637 160.09 49.9747 160.843 49.3966C161.597 48.8185 161.973 48.0897 161.973 47.21C161.973 46.3052 161.572 45.6392 160.768 45.212C159.964 44.7596 158.721 44.3197 157.039 43.8925C155.507 43.4904 154.251 43.0882 153.272 42.6861C152.318 42.2588 151.489 41.6431 150.786 40.8388C150.108 40.0094 149.769 38.9287 149.769 37.5967C149.769 36.5411 150.083 35.5735 150.71 34.6938C151.338 33.8142 152.23 33.123 153.385 32.6204C154.54 32.0926 155.859 31.8287 157.34 31.8287C159.625 31.8287 161.471 32.4067 162.878 33.5628C164.284 34.719 165.037 36.3023 165.138 38.313H161.71C161.634 37.2323 161.195 36.3652 160.391 35.7117C159.613 35.0582 158.558 34.7315 157.227 34.7315C155.997 34.7315 155.017 34.9954 154.289 35.5232C153.561 36.051 153.197 36.7422 153.197 37.5967C153.197 38.2753 153.41 38.8408 153.837 39.2932C154.289 39.7204 154.841 40.0723 155.494 40.3487C156.172 40.6001 157.102 40.8891 158.282 41.2158C159.764 41.6179 160.969 42.0201 161.898 42.4222C162.827 42.7992 163.618 43.3773 164.271 44.1564C164.949 44.9355 165.301 45.9534 165.326 47.21C165.326 48.341 165.012 49.3589 164.384 50.2637C163.756 51.1685 162.865 51.8848 161.71 52.4125C160.58 52.9152 159.274 53.1665 157.792 53.1665Z" fill="#36074E"/>
<path d="M196.797 26.7392V52.8272H193.369V33.3743L184.705 52.8272H182.294L173.593 33.3366V52.8272H170.165V26.7392H173.857L183.5 48.3033L193.143 26.7392H196.797Z" fill="#36074E"/>
<path d="M201.33 42.4222C201.33 40.311 201.757 38.4638 202.61 36.8804C203.464 35.2719 204.632 34.0278 206.114 33.1481C207.62 32.2685 209.29 31.8287 211.124 31.8287C212.932 31.8287 214.501 32.2182 215.832 32.9973C217.163 33.7765 218.155 34.7567 218.808 35.9379V32.168H222.274V52.8272H218.808V48.9819C218.13 50.1883 217.113 51.1936 215.757 51.9979C214.426 52.777 212.869 53.1665 211.086 53.1665C209.253 53.1665 207.595 52.7141 206.114 51.8094C204.632 50.9046 203.464 49.6354 202.61 48.0017C201.757 46.3681 201.33 44.5082 201.33 42.4222ZM218.808 42.4599C218.808 40.9017 218.494 39.5445 217.866 38.3884C217.239 37.2323 216.385 36.3526 215.305 35.7494C214.25 35.1211 213.082 34.8069 211.802 34.8069C210.521 34.8069 209.353 35.1085 208.298 35.7117C207.244 36.3149 206.402 37.1945 205.775 38.3507C205.147 39.5068 204.833 40.864 204.833 42.4222C204.833 44.0056 205.147 45.3879 205.775 46.5691C206.402 47.7253 207.244 48.6175 208.298 49.2458C209.353 49.849 210.521 50.1506 211.802 50.1506C213.082 50.1506 214.25 49.849 215.305 49.2458C216.385 48.6175 217.239 47.7253 217.866 46.5691C218.494 45.3879 218.808 44.0181 218.808 42.4599Z" fill="#36074E"/>
<path d="M232.248 34.9954V47.1723C232.248 48.1777 232.461 48.8939 232.888 49.3212C233.315 49.7233 234.056 49.9244 235.111 49.9244H237.634V52.8272H234.546C232.637 52.8272 231.206 52.3874 230.251 51.5078C229.297 50.6281 228.82 49.183 228.82 47.1723V34.9954H226.145V32.168H228.82V26.9654H232.248V32.168H237.634V34.9954H232.248Z" fill="#36074E"/>
<path d="M260.622 41.7059C260.622 42.3594 260.585 43.0505 260.509 43.7794H244.01C244.136 45.8152 244.826 47.4111 246.082 48.5672C247.363 49.6982 248.907 50.2637 250.715 50.2637C252.197 50.2637 253.427 49.9244 254.407 49.2458C255.411 48.5421 256.115 47.6122 256.516 46.456H260.208C259.655 48.4415 258.55 50.0626 256.893 51.3193C255.236 52.5508 253.176 53.1665 250.715 53.1665C248.757 53.1665 246.999 52.7267 245.442 51.8471C243.91 50.9674 242.704 49.7233 241.825 48.1148C240.946 46.4812 240.507 44.5962 240.507 42.4599C240.507 40.3236 240.934 38.4512 241.788 36.8427C242.642 35.2342 243.834 34.0027 245.366 33.1481C246.923 32.2685 248.706 31.8287 250.715 31.8287C252.674 31.8287 254.407 32.2559 255.914 33.1104C257.42 33.965 258.576 35.1462 259.379 36.6542C260.208 38.137 260.622 39.8209 260.622 41.7059ZM257.081 40.9896C257.081 39.6827 256.793 38.5643 256.215 37.6344C255.637 36.6793 254.846 35.963 253.842 35.4855C252.862 34.9829 251.77 34.7315 250.565 34.7315C248.832 34.7315 247.35 35.2844 246.12 36.3903C244.914 37.4961 244.224 39.0293 244.048 40.9896H257.081Z" fill="#36074E"/>
<path d="M290.709 46.9838H279.258L277.148 52.8272H273.532L283.025 26.7015H286.98L296.435 52.8272H292.819L290.709 46.9838ZM289.73 44.1941L284.984 30.9239L280.237 44.1941H289.73Z" fill="#B79EFF"/>
<path d="M304 26.5507V52.8272H300.572V26.5507H304Z" fill="#B79EFF"/>
<path d="M43.0783 46.61L32.8501 56.9998C30.254 59.6369 25.7738 58.3997 24.8962 54.8034L21.5218 40.9758C20.6773 37.5149 23.816 34.3982 27.2674 35.2705L40.8699 38.7084C44.4099 39.603 45.6407 44.0071 43.0783 46.61Z" fill="#C71DFF"/>
<path fill-rule="evenodd" clip-rule="evenodd" d="M22.9039 16.9387C19.3091 16.7061 16.1254 14.1767 15.2255 10.4891C14.1158 5.94151 16.8997 1.35462 21.4436 0.243984C25.9876 -0.866663 30.5708 1.91952 31.6805 6.46715C32.5801 10.1535 30.9211 13.8657 27.8402 15.7311L29.4393 22.2842L44.2485 18.6646C51.0645 16.9986 57.9392 21.1779 59.6038 27.9993L64.9287 49.8202C66.5934 56.6417 62.4175 63.5219 55.6015 65.1879L21.0459 73.634C14.23 75.3 7.35526 71.1208 5.6906 64.2993L0.365675 42.4784C-1.29894 35.657 2.877 28.7766 9.6929 27.1107L24.5028 23.4908L22.9039 16.9387ZM20.162 9.28253C19.7181 7.46344 20.8317 5.62872 22.6493 5.18447C24.4669 4.74021 26.3001 5.85467 26.744 7.67375C27.1855 9.48281 26.0865 11.3074 24.2865 11.7644L24.2583 11.7711L24.2288 11.7785C22.4204 12.2046 20.6037 11.0922 20.162 9.28253ZM10.8985 32.0512C6.80898 33.0508 4.30341 37.179 5.30218 41.2718L10.6271 63.0927C11.6259 67.1856 15.7507 69.6931 19.8403 68.6935L54.3959 60.2474C58.4856 59.2478 60.991 55.1198 59.9922 51.0268L54.6673 29.2059C53.6685 25.113 49.5437 22.6054 45.4541 23.605L10.8985 32.0512Z" fill="#C71DFF"/>
<path d="M47.6509 2.1018C47.1924 1.5121 46.2529 1.74173 46.1176 2.47657L45.5414 5.60615C45.503 5.81485 45.3893 6.00215 45.222 6.13247L42.7125 8.0868C42.1233 8.54569 42.3528 9.48593 43.087 9.62132L46.2141 10.198C46.4226 10.2364 46.6097 10.3502 46.74 10.5177L48.6927 13.0291C49.1512 13.6188 50.0907 13.3892 50.226 12.6544L50.8022 9.52477C50.8406 9.31608 50.9543 9.12878 51.1216 8.99845L53.6311 7.04412C54.2203 6.58524 53.9908 5.645 53.2566 5.5096L50.1295 4.93295C49.921 4.8945 49.7339 4.78073 49.6036 4.61325L47.6509 2.1018Z" fill="#C71DFF"/>
</svg>
